<svg id="Rib" xmlns="http://www.w3.org/2000/svg" viewBox="0 0 93.95 59.06"><defs><style>.cls-1,.cls-2{fill:none;stroke:#000;stroke-linecap:round;stroke-linejoin:round;}.cls-1{stroke-width:2px;}</style></defs><title>rib</title><path class="cls-1" d="M141.41,56.18s11.64,22.37,16,42.7c0,0,51.28,5.59,75.93-21.35-1.63-26.71-1.67-35.23-1.67-35.23S188.84,59.1,141.41,56.18Z" transform="translate(-140.41 -41.3)"/><line class="cls-2" x1="11.88" y1="18.61" x2="23.02" y2="52.73"/><line class="cls-2" x1="82.94" y1="7.27" x2="88.71" y2="36.3"/><line class="cls-2" x1="74.79" y1="9.87" x2="82.61" y2="40.78"/><line class="cls-2" x1="66.94" y1="11.25" x2="76.31" y2="45.51"/><line class="cls-2" x1="59.69" y1="13.92" x2="69.56" y2="48.05"/><line class="cls-2" x1="52.41" y1="16.07" x2="63.55" y2="50.19"/><line class="cls-2" x1="43.89" y1="17.17" x2="55.03" y2="51.29"/><line class="cls-2" x1="35.84" y1="18.61" x2="46.97" y2="52.73"/><line class="cls-2" x1="29.01" y1="18.61" x2="40.15" y2="52.73"/><line class="cls-2" x1="20.01" y1="18.61" x2="31.15" y2="52.73"/></svg>