<svg id="Layer_1" data-name="Layer 1" xmlns="http://www.w3.org/2000/svg" viewBox="0 0 300.27 237.21"><title>wholenodash</title><g id="Rib"><path d="M141.41,56.18s11.64,22.37,16,42.7c0,0,51.28,5.59,75.93-21.35-1.63-26.71-1.67-35.23-1.67-35.23S188.84,59.1,141.41,56.18Z" transform="translate(-140.41 -41.3)" style="fill:none;stroke:#000;stroke-linecap:round;stroke-linejoin:round;stroke-width:2px"/><line x1="11.88" y1="18.61" x2="23.02" y2="52.73" style="fill:none;stroke:#000;stroke-linecap:round;stroke-linejoin:round"/><line x1="82.94" y1="7.27" x2="88.7" y2="36.3" style="fill:none;stroke:#000;stroke-linecap:round;stroke-linejoin:round"/><line x1="74.79" y1="9.87" x2="82.61" y2="40.78" style="fill:none;stroke:#000;stroke-linecap:round;stroke-linejoin:round"/><line x1="66.94" y1="11.25" x2="76.31" y2="45.51" style="fill:none;stroke:#000;stroke-linecap:round;stroke-linejoin:round"/><line x1="59.69" y1="13.92" x2="69.56" y2="48.05" style="fill:none;stroke:#000;stroke-linecap:round;stroke-linejoin:round"/><line x1="52.41" y1="16.07" x2="63.55" y2="50.19" style="fill:none;stroke:#000;stroke-linecap:round;stroke-linejoin:round"/><line x1="43.89" y1="17.17" x2="55.03" y2="51.29" style="fill:none;stroke:#000;stroke-linecap:round;stroke-linejoin:round"/><line x1="35.83" y1="18.61" x2="46.97" y2="52.73" style="fill:none;stroke:#000;stroke-linecap:round;stroke-linejoin:round"/><line x1="29.01" y1="18.61" x2="40.15" y2="52.73" style="fill:none;stroke:#000;stroke-linecap:round;stroke-linejoin:round"/><line x1="20.01" y1="18.61" x2="31.15" y2="52.73" style="fill:none;stroke:#000;stroke-linecap:round;stroke-linejoin:round"/></g><g id="ankle"><path d="M157.43,98.88s6.94,28.25,12,94.27" transform="translate(-140.41 -41.3)" style="fill:none;stroke:#000;stroke-linecap:round;stroke-linejoin:round;stroke-width:2px"/><path d="M254.82,148C240,132.14,233.36,77.53,233.36,77.53" transform="translate(-140.41 -41.3)" style="fill:none;stroke:#000;stroke-linecap:round;stroke-linejoin:round;stroke-width:2px"/></g><g id="heel"><path d="M169.42,193.92s38.37-25,51.45,62.55C186,256.47,178.75,269.07,169.42,193.92Z" transform="translate(-140.41 -41.3)" style="fill:none;stroke:#000;stroke-linecap:round;stroke-linejoin:round;stroke-width:2px"/></g><g id="Toe"><path d="M414.34,205.36s-21.54,28-19,48.26,6.44,23.61,6.44,23.61,28.5-3.3,36.52-27.52S416.75,207,414.34,205.36Z" transform="translate(-140.41 -41.3)" style="fill:none;stroke:#000;stroke-linecap:round;stroke-linejoin:round;stroke-width:2px"/></g><g id="foot"><path d="M254.82,148s13.85,18.31,62.5,26.81,86.08,22.44,97,30.59l-.45.65c-3,4.37-20,29.7-18.74,42.61,1.55,15.8.9,10.52,6,27.77.08.28.17.56.25.85-13.61,1.46-28.13-2.71-68.28-16.16s-112.22-4.58-112.22-4.58-.1-.09-.16-.27a2.28,2.28,0,0,1,0-.6" transform="translate(-140.41 -41.3)" style="fill:none;stroke:#000;stroke-linecap:round;stroke-linejoin:round;stroke-width:2px"/></g></svg>